<svg id="Layer_1" data-name="Layer 1" xmlns="http://www.w3.org/2000/svg" viewBox="0 0 841.89 595.28"><defs><style>.cls-1{fill:#4949c9;}.cls-2{fill:#1e1eba;}.cls-3{fill:#00d59b;}.cls-4{fill:#009b93;}</style></defs><polygon class="cls-1" points="66.53 267.23 151.26 218.63 151.26 270.97 66.53 321.22 66.53 267.23"/><polygon class="cls-2" points="177.71 328.26 66.53 267.23 66.53 320.81 177.71 381.65 177.71 328.26"/><polygon class="cls-3" points="160.12 241.89 160.12 293.95 242.64 343.51 242.64 291.18 160.12 241.89"/><polygon class="cls-4" points="129.67 355.69 242.64 291.18 242.64 343.51 129.67 409.69 129.67 355.69"/><path class="cls-2" d="M273.12,298.71c0-26.09,17.24-41.22,37.11-41.22a33.2,33.2,0,0,1,23.65,10.2l-9.37,11.41c-3.95-3.68-8.19-6.26-13.88-6.26-10.78,0-19.3,9.5-19.3,25.27,0,16.16,7.52,25.55,19,25.55,6.46,0,11.54-3.18,15.39-7.35l9.37,11.16A32.35,32.35,0,0,1,309.71,339C289.76,339,273.12,325.19,273.12,298.71Z"/><path class="cls-2" d="M342.09,307.66c0-19.9,14-31.39,29.16-31.39s29.15,11.49,29.15,31.39S386.39,339,371.25,339,342.09,327.51,342.09,307.66Zm40.13,0c0-10.36-3.64-17.08-11-17.08s-11,6.72-11,17.08,3.64,17,11,17S382.22,318,382.22,307.66Z"/><path class="cls-2" d="M409.45,307.66c0-19.57,12.22-31.39,24.82-31.39,6.6,0,10.63,2.45,14.67,6.24l-.64-9.07V253.05H466v84.51H451.57l-1.28-5.93h-.44c-4.23,4.23-10.15,7.38-15.92,7.38C419.05,339,409.45,327.2,409.45,307.66Zm38.85,11.48V294.56a14.48,14.48,0,0,0-9.9-3.78c-5.75,0-10.78,5.3-10.78,16.68,0,11.75,4.06,17,10.92,17C442.32,324.5,445.37,323.07,448.3,319.14Z"/><path class="cls-2" d="M478.17,307.66c0-19.42,13.86-31.39,28.24-31.39,17,0,25.49,12.39,25.49,28.72a40.11,40.11,0,0,1-.74,7.84H495.35c1.59,8.68,7.54,12.67,15.53,12.67,4.52,0,8.6-1.38,12.94-3.92l5.86,10.69A39,39,0,0,1,508.45,339C491.39,339,478.17,327.47,478.17,307.66Zm38.58-6.56c0-6.58-2.87-11.32-9.95-11.32-5.6,0-10.44,3.76-11.64,11.32Z"/><path class="cls-3" d="M538.13,327.64l10.2-12.19c5.6,4.86,12.85,8.21,19.32,8.21,7.42,0,11.05-2.92,11.05-7.58,0-5-4.47-6.54-11.34-9.37l-10.22-4.35c-8.14-3.32-15.86-10-15.86-21.44,0-13,11.64-23.43,28-23.43a36.35,36.35,0,0,1,25.29,10.3l-9,11.21c-5.18-4-10.1-6.16-16.32-6.16s-10,2.55-10,7.05c0,4.82,5.14,6.57,12,9.3l10,4.06c9.6,3.88,15.59,10.28,15.59,21.39C596.87,327.7,586,339,567.25,339A43.27,43.27,0,0,1,538.13,327.64Z"/><path class="cls-3" d="M607,359.76l3.15-13.52a17.56,17.56,0,0,0,4,.77c5.84,0,8.92-3.22,10.47-7.86l.89-3.12-23.09-58.32h17.82l8.56,25.76c1.73,5.42,3.14,11.09,4.72,17H634c1.34-5.67,2.67-11.34,4.16-17l7.26-25.76h17l-20.77,60.5C636,353.2,629.59,361,615.53,361A27.63,27.63,0,0,1,607,359.76Z"/><path class="cls-3" d="M671.66,277.71h14.47l1.28,7.58h.44c5-4.84,11.07-9,19.23-9,13,0,18.56,9.18,18.56,24.14v37.15H707.91V302.68c0-8.61-2.31-11.31-7.44-11.31-4.45,0-7.17,2.07-11.08,5.82v40.37H671.66Z"/><path class="cls-3" d="M737.19,307.66c0-19.9,14.65-31.39,31.18-31.39a26,26,0,0,1,17.49,6.44l-8.38,11.4c-2.86-2.43-5.26-3.53-8.11-3.53-8.53,0-14,6.72-14,17.08s5.71,17,13.41,17c3.93,0,7.69-1.94,10.8-4.41l6.94,11.6A29.93,29.93,0,0,1,766.78,339C750.08,339,737.19,327.51,737.19,307.66Z"/></svg>