<?xml version="1.0" encoding="iso-8859-1"?>
<!-- Generator: Adobe Illustrator 19.0.0, SVG Export Plug-In . SVG Version: 6.00 Build 0)  -->
<svg version="1.1" id="Layer_1" xmlns="http://www.w3.org/2000/svg" xmlns:xlink="http://www.w3.org/1999/xlink" x="0px" y="0px"
	 viewBox="0 0 501.65 501.65" style="enable-background:new 0 0 501.65 501.65;" xml:space="preserve">
<g>
	<g>
		<path d="M496.044,277.367L227.244,6.434c-6.4-5.333-13.867-7.467-21.333-5.333l-106.667,32c-3.2,1.067-5.333,2.133-7.467,4.267
			c-16,7.467-33.067,19.2-48,34.133c-42.667,42.667-56.533,93.867-30.933,120.533c2.133,2.133,3.2,3.2,5.333,4.267l284.8,285.867
			c1.067,2.133,2.133,4.267,4.267,6.4c8.533,8.533,20.267,12.8,34.133,12.8c26.667,0,58.667-16,85.333-44.8
			C469.378,413.9,483.244,362.7,457.644,337.1l-7.467-7.467l39.467-19.2c6.4-2.133,10.667-8.533,11.733-14.933
			C502.444,289.1,500.311,281.633,496.044,277.367z M44.844,163.234l-2.133-2.133c-1.066-7.467,3.2-32,30.934-59.733
			c12.8-13.867,26.667-22.4,38.4-27.733c0,0,14.933-8.533,21.333-3.2c3.2,2.133,0,29.867-30.933,60.8
			c-21.333,22.4-43.733,32-55.467,32C45.911,163.234,44.844,163.234,44.844,163.234z M396.845,427.767
			c-21.333,22.4-43.733,32-55.467,32c-3.2,0-4.267-1.067-4.267-1.067L78.978,197.367c18.133-7.467,36.267-20.267,53.333-37.333
			s29.867-36.267,37.333-54.4l258.133,261.333C429.911,370.167,427.778,396.834,396.845,427.767z M419.245,298.701L177.111,53.367
			l28.8-8.533L444.845,285.9L419.245,298.701z"/>
	</g>
</g>
<g>
</g>
<g>
</g>
<g>
</g>
<g>
</g>
<g>
</g>
<g>
</g>
<g>
</g>
<g>
</g>
<g>
</g>
<g>
</g>
<g>
</g>
<g>
</g>
<g>
</g>
<g>
</g>
<g>
</g>
</svg>
