<?xml version="1.0" encoding="iso-8859-1"?>
<!-- Generator: Adobe Illustrator 19.0.0, SVG Export Plug-In . SVG Version: 6.00 Build 0)  -->
<svg version="1.1" id="Layer_1" xmlns="http://www.w3.org/2000/svg" xmlns:xlink="http://www.w3.org/1999/xlink" x="0px" y="0px"
	 viewBox="0 0 512 512" style="enable-background:new 0 0 512 512;" xml:space="preserve">
<g>
	<g>
		<path d="M508.135,118.921l-64.95-50.034c-2.085-1.605-4.729-2.318-7.329-1.978c-2.609,0.339-4.976,1.699-6.581,3.782
			l-31.249,40.565V18.811c0-5.477-4.439-9.918-9.918-9.918H118.129c-2.63,0-5.152,1.045-7.014,2.905L2.904,120.009
			C1.045,121.867,0,124.39,0,127.021v366.169c0,5.477,4.439,9.918,9.918,9.918h378.189c5.479,0,9.918-4.441,9.918-9.918V278.111
			L509.938,132.83C513.281,128.491,512.473,122.264,508.135,118.921z M438.936,90.654l16.763,12.912L306.403,297.372l-16.763-12.912
			L438.936,90.654z M318.081,331.406l-30.965,7.253l-0.889-31.79L318.081,331.406z M108.211,42.754v74.35h-74.35L108.211,42.754z
			 M19.836,483.273V136.94h98.293c5.479,0,9.918-4.441,9.918-9.918V28.729h250.142v108.278L267.874,280.211
			c-1.395,1.81-2.121,4.047-2.058,6.33l1.81,64.825c0.083,2.978,1.501,5.762,3.861,7.58c1.751,1.35,3.885,2.062,6.053,2.062
			c0.754,0,1.514-0.086,2.263-0.262l63.141-14.792c2.224-0.521,4.201-1.794,5.594-3.604l29.649-38.489v179.412H19.836z
			 M338.879,322.388l-16.763-12.912L471.411,115.67l16.761,12.912L338.879,322.388z"/>
	</g>
</g>
<g>
	<g>
		<path d="M192.703,200.283c0-28.705-23.352-52.057-52.057-52.057c-28.704,0-52.056,23.352-52.056,52.057
			c0,26.01,19.176,47.626,44.132,51.454l7.497,77.468c0.496,5.127,4.812,8.963,9.86,8.963c0.319,0,0.643-0.016,0.967-0.046
			c5.452-0.528,9.445-5.375,8.916-10.828l-7.388-76.349C175.547,245.538,192.703,224.884,192.703,200.283z M140.646,232.503
			c-17.766,0-32.22-14.454-32.22-32.22c0-17.768,14.455-32.221,32.22-32.221c17.768,0,32.221,14.454,32.221,32.221
			C172.868,218.05,158.413,232.503,140.646,232.503z"/>
	</g>
</g>
<g>
	<g>
		<path d="M116.37,270.726H63.475c-5.479,0-9.918,4.441-9.918,9.918c0,5.477,4.439,9.918,9.918,9.918h52.895
			c5.479,0,9.918-4.441,9.918-9.918C126.288,275.166,121.849,270.726,116.37,270.726z"/>
	</g>
</g>
<g>
	<g>
		<path d="M224.121,222.981c-4.094-3.639-10.364-3.27-14.001,0.824l-42.316,47.606c-3.639,4.094-3.27,10.362,0.824,14.001
			c1.89,1.679,4.241,2.506,6.584,2.506c2.736-0.001,5.459-1.125,7.417-3.33l42.316-47.606
			C228.584,232.888,228.215,226.62,224.121,222.981z"/>
	</g>
</g>
<g>
	<g>
		<path d="M155.05,352.987c-5.324-1.277-10.681,2.005-11.958,7.329l-15.869,66.119c-1.279,5.327,2.003,10.681,7.33,11.958
			c0.778,0.186,1.556,0.276,2.322,0.276c4.482,0,8.545-3.057,9.636-7.605l15.869-66.119
			C163.658,359.619,160.376,354.265,155.05,352.987z"/>
	</g>
</g>
<g>
	<g>
		<path d="M255.41,369.829l-71.409-39.672c-4.792-2.662-10.826-0.935-13.487,3.853c-2.659,4.788-0.935,10.826,3.853,13.486
			l71.409,39.672c1.526,0.848,3.178,1.25,4.808,1.25c3.486,0,6.866-1.841,8.679-5.103
			C261.921,378.528,260.198,372.49,255.41,369.829z"/>
	</g>
</g>
<g>
</g>
<g>
</g>
<g>
</g>
<g>
</g>
<g>
</g>
<g>
</g>
<g>
</g>
<g>
</g>
<g>
</g>
<g>
</g>
<g>
</g>
<g>
</g>
<g>
</g>
<g>
</g>
<g>
</g>
</svg>
