<svg xmlns="http://www.w3.org/2000/svg" x="0px" y="0px"
width="50" height="50"
viewBox="0 0 172 172"
style=" fill:#000000;"><g fill="none" fill-rule="nonzero" stroke="none" stroke-width="1" stroke-linecap="butt" stroke-linejoin="miter" stroke-miterlimit="10" stroke-dasharray="" stroke-dashoffset="0" font-family="none" font-weight="none" font-size="none" text-anchor="none" style="mix-blend-mode: normal"><path d="M0,172v-172h172v172z" fill="none"></path><g fill="#000000"><path d="M86,0c-20.984,0 -37.84,16.50931 -37.84,36.80531v1.03469h25.8c1.89888,0 3.44,1.54112 3.44,3.44c0,1.89888 -1.54112,3.44 -3.44,3.44h-25.8v6.88h25.8c1.89888,0 3.44,1.54112 3.44,3.44c0,1.89888 -1.54112,3.44 -3.44,3.44h-19.60531h-6.19469v3.78265v3.09735h3.09735h10.01765h12.685c2.064,0 3.44,1.376 3.44,3.44c0,2.064 -1.376,3.44 -3.44,3.44h-5.76469h-10.05797h-9.97735v6.88v1.03469c0,20.296 16.856,36.80531 37.84,36.80531c1.28339,0 2.55227,-0.06334 3.80281,-0.18813c0.51167,-0.05094 0.99612,-0.15107 1.49828,-0.22172c0.73316,-0.10315 1.47266,-0.19275 2.18359,-0.33594c0.82946,-0.16649 1.63675,-0.39164 2.44563,-0.6114c0.3328,-0.09147 0.68138,-0.16209 1.00781,-0.26203c3.56585,-1.07546 6.90733,-2.66226 9.94375,-4.67625l0.10078,0.10078c10.32,-6.536 17.2,-17.888 17.2,-30.96v-7.56531h-0.34265h-25.8c-1.90232,0 -3.44,-1.54112 -3.44,-3.44c0,-1.89888 1.53768,-3.44 3.44,-3.44h12.04h14.10265v-6.88h-14.10265h-12.04c-1.90232,0 -3.44,-1.54112 -3.44,-3.44c0,-1.89888 1.53768,-3.44 3.44,-3.44h26.14265v-6.88h-26.14265c-1.90232,0 -3.44,-1.54112 -3.44,-3.44c0,-1.89888 1.53768,-3.44 3.44,-3.44h26.14265v-1.03469c-0.344,-20.296 -17.19865,-36.80531 -38.18265,-36.80531zM34.4,58.48c-1.89888,0 -3.44,1.54112 -3.44,3.44v17.2c0,26.81772 19.29249,49.18366 44.72,54.03219v14.76781h20.64v-14.76781c25.42751,-4.84853 44.72,-27.21447 44.72,-54.03219v-17.2c0,-1.89888 -1.53768,-3.44 -3.44,-3.44c-1.90232,0 -3.44,1.54112 -3.44,3.44v17.2c0,26.5568 -21.6032,48.16 -48.16,48.16c-26.5568,0 -48.16,-21.6032 -48.16,-48.16v-17.2c0,-1.89888 -1.54112,-3.44 -3.44,-3.44zM53.32,154.8c-6.74928,0 -12.04,5.28728 -12.04,12.04v5.16h89.09735v-5.16c0,-6.75272 -5.28728,-12.04 -12.04,-12.04z"></path></g></g></svg>