<?xml version="1.0" encoding="iso-8859-1"?>
<!-- Generator: Adobe Illustrator 16.0.0, SVG Export Plug-In . SVG Version: 6.00 Build 0)  -->
<!DOCTYPE svg PUBLIC "-//W3C//DTD SVG 1.1//EN" "http://www.w3.org/Graphics/SVG/1.1/DTD/svg11.dtd">
<svg version="1.1" id="Capa_1" xmlns="http://www.w3.org/2000/svg" xmlns:xlink="http://www.w3.org/1999/xlink" x="0px" y="0px"
	 width="484.665px" height="484.665px" viewBox="0 0 484.665 484.665" style="enable-background:new 0 0 484.665 484.665;"
	 xml:space="preserve">
<g>
	<g id="_x35_5_56_">
		<g>
			<path d="M392.771,39.249H368.31V20.778C368.31,9.305,359.007,0,347.531,0h-7.552c-11.477,0-20.778,9.306-20.778,20.778v18.471
				H173.846V20.778C173.846,9.305,164.543,0,153.067,0h-7.552c-11.476,0-20.777,9.306-20.777,20.778v18.471H91.893
				c-30.932,0-56.096,25.165-56.096,56.097v333.222c0,30.932,25.164,56.097,56.096,56.097h300.879
				c30.932,0,56.096-25.165,56.096-56.097V95.346C448.867,64.414,423.703,39.249,392.771,39.249z M415.086,428.567
				c0,12.304-10.011,22.314-22.313,22.314H91.893c-12.304,0-22.314-10.012-22.314-22.314V95.346
				c0-12.305,10.011-22.315,22.314-22.315h32.845v26.537c0,11.474,9.302,20.779,20.777,20.779h7.552
				c11.477,0,20.779-9.306,20.779-20.779V73.03h145.355v26.537c0,11.474,9.303,20.779,20.777,20.779h7.553
				c11.477,0,20.778-9.306,20.778-20.779V73.03h24.462c12.304,0,22.313,10.011,22.313,22.315L415.086,428.567L415.086,428.567z"/>
			<path d="M356.665,166.197h-222c-9.328,0-16.891,7.562-16.891,16.891s7.563,16.891,16.891,16.891h222
				c9.328,0,16.891-7.563,16.891-16.891S365.993,166.197,356.665,166.197z"/>
			<path d="M355.476,233.197h-222c-9.328,0-16.891,7.562-16.891,16.891s7.563,16.891,16.891,16.891h222
				c9.328,0,16.892-7.562,16.892-16.891S364.804,233.197,355.476,233.197z"/>
			<path d="M354.286,300.197h-222c-9.328,0-16.891,7.562-16.891,16.891s7.563,16.891,16.891,16.891h222
				c9.328,0,16.891-7.562,16.891-16.891S363.614,300.197,354.286,300.197z"/>
			<path d="M353.097,367.197h-222c-9.328,0-16.891,7.562-16.891,16.891s7.563,16.891,16.891,16.891h222
				c9.328,0,16.892-7.562,16.892-16.891S362.425,367.197,353.097,367.197z"/>
		</g>
	</g>
</g>
<g>
</g>
<g>
</g>
<g>
</g>
<g>
</g>
<g>
</g>
<g>
</g>
<g>
</g>
<g>
</g>
<g>
</g>
<g>
</g>
<g>
</g>
<g>
</g>
<g>
</g>
<g>
</g>
<g>
</g>
</svg>
