<?xml version="1.0" encoding="iso-8859-1"?>
<!-- Generator: Adobe Illustrator 16.0.0, SVG Export Plug-In . SVG Version: 6.00 Build 0)  -->
<!DOCTYPE svg PUBLIC "-//W3C//DTD SVG 1.1//EN" "http://www.w3.org/Graphics/SVG/1.1/DTD/svg11.dtd">
<svg version="1.1" id="Capa_1" xmlns="http://www.w3.org/2000/svg" xmlns:xlink="http://www.w3.org/1999/xlink" x="0px" y="0px"
	 width="31.614px" height="31.614px" viewBox="0 0 31.614 31.614" style="enable-background:new 0 0 31.614 31.614;"
	 xml:space="preserve">
<g>
	<path d="M4.372,21.711l6.548,5.871l13.889-15.479L18.26,6.229L4.372,21.711z M16.619,13.415l-7.798,8.693
		c-0.098,0.108-0.234,0.175-0.38,0.183c-0.146,0.009-0.29-0.042-0.398-0.141l-0.387-0.348c-0.226-0.203-0.245-0.551-0.042-0.777
		l7.798-8.693c0.098-0.109,0.234-0.175,0.38-0.183c0.146-0.008,0.29,0.043,0.398,0.14l0.387,0.347
		C16.803,12.84,16.821,13.188,16.619,13.415z M18.887,9.282l0.386,0.346c0.228,0.203,0.246,0.552,0.043,0.778l-0.678,0.756
		c-0.1,0.109-0.235,0.174-0.381,0.183c-0.146,0.008-0.289-0.042-0.398-0.14l-0.387-0.347c-0.108-0.098-0.174-0.234-0.184-0.381
		c-0.008-0.146,0.043-0.29,0.142-0.398l0.678-0.756C18.312,9.097,18.661,9.078,18.887,9.282z M20.501,3.732l6.547,5.873
		l-1.608,1.793l-6.546-5.873L20.501,3.732z M29.681,3.817l-3.711-3.33c-0.783-0.703-1.986-0.637-2.688,0.146l-2.188,2.44
		l6.548,5.872l2.188-2.438c0.336-0.376,0.513-0.871,0.482-1.375C30.284,4.627,30.057,4.154,29.681,3.817z M27.507,6.498
		l-3.969-3.559l1.146-1.276l3.968,3.558L27.507,6.498z M1.336,30.403c-0.101,0.35,0.007,0.727,0.277,0.968
		c0.27,0.243,0.656,0.31,0.992,0.173l7.529-3.084l-6.546-5.873L1.336,30.403z M7.991,28.088l-2.958,1.211l-1.73-1.552l0.885-3.071
		L7.991,28.088z"/>
</g>
<g>
</g>
<g>
</g>
<g>
</g>
<g>
</g>
<g>
</g>
<g>
</g>
<g>
</g>
<g>
</g>
<g>
</g>
<g>
</g>
<g>
</g>
<g>
</g>
<g>
</g>
<g>
</g>
<g>
</g>
</svg>
